<svg width="19" height="19" viewBox="0 0 19 19" fill="none" xmlns="http://www.w3.org/2000/svg">
<path fill-rule="evenodd" clip-rule="evenodd" d="M1.07251 1.07251C1.1692 0.975829 1.32595 0.975829 1.42263 1.07251L9.5 9.14988L17.5774 1.07251C17.674 0.975829 17.8308 0.975829 17.9275 1.07251C18.0242 1.1692 18.0242 1.32595 17.9275 1.42263L9.85012 9.5L17.9275 17.5774C18.0242 17.674 18.0242 17.8308 17.9275 17.9275C17.8308 18.0242 17.674 18.0242 17.5774 17.9275L9.5 9.85012L1.42263 17.9275C1.32595 18.0242 1.1692 18.0242 1.07251 17.9275C0.975829 17.8308 0.975829 17.674 1.07251 17.5774L9.14988 9.5L1.07251 1.42263C0.975829 1.32595 0.975829 1.1692 1.07251 1.07251Z" fill="#191414"/>
<path fill-rule="evenodd" clip-rule="evenodd" d="M1.07251 1.07251C1.1692 0.975829 1.32595 0.975829 1.42263 1.07251L9.5 9.14988L17.5774 1.07251C17.674 0.975829 17.8308 0.975829 17.9275 1.07251C18.0242 1.1692 18.0242 1.32595 17.9275 1.42263L9.85012 9.5L17.9275 17.5774C18.0242 17.674 18.0242 17.8308 17.9275 17.9275C17.8308 18.0242 17.674 18.0242 17.5774 17.9275L9.5 9.85012L1.42263 17.9275C1.32595 18.0242 1.1692 18.0242 1.07251 17.9275C0.975829 17.8308 0.975829 17.674 1.07251 17.5774L9.14988 9.5L1.07251 1.42263C0.975829 1.32595 0.975829 1.1692 1.07251 1.07251Z" fill="#F1F1F1"/>
<path fill-rule="evenodd" clip-rule="evenodd" d="M1.07251 1.07251C1.1692 0.975829 1.32595 0.975829 1.42263 1.07251L9.5 9.14988L17.5774 1.07251C17.674 0.975829 17.8308 0.975829 17.9275 1.07251C18.0242 1.1692 18.0242 1.32595 17.9275 1.42263L9.85012 9.5L17.9275 17.5774C18.0242 17.674 18.0242 17.8308 17.9275 17.9275C17.8308 18.0242 17.674 18.0242 17.5774 17.9275L9.5 9.85012L1.42263 17.9275C1.32595 18.0242 1.1692 18.0242 1.07251 17.9275C0.975829 17.8308 0.975829 17.674 1.07251 17.5774L9.14988 9.5L1.07251 1.42263C0.975829 1.32595 0.975829 1.1692 1.07251 1.07251Z" stroke="#191414" stroke-linecap="round" stroke-linejoin="round"/>
<path fill-rule="evenodd" clip-rule="evenodd" d="M1.07251 1.07251C1.1692 0.975829 1.32595 0.975829 1.42263 1.07251L9.5 9.14988L17.5774 1.07251C17.674 0.975829 17.8308 0.975829 17.9275 1.07251C18.0242 1.1692 18.0242 1.32595 17.9275 1.42263L9.85012 9.5L17.9275 17.5774C18.0242 17.674 18.0242 17.8308 17.9275 17.9275C17.8308 18.0242 17.674 18.0242 17.5774 17.9275L9.5 9.85012L1.42263 17.9275C1.32595 18.0242 1.1692 18.0242 1.07251 17.9275C0.975829 17.8308 0.975829 17.674 1.07251 17.5774L9.14988 9.5L1.07251 1.42263C0.975829 1.32595 0.975829 1.1692 1.07251 1.07251Z" stroke="#F1F1F1" stroke-linecap="round" stroke-linejoin="round"/>
</svg>
