<svg width="27" height="27" viewBox="0 0 27 27" fill="none" xmlns="http://www.w3.org/2000/svg">
<path d="M21.557 22.0526C21.2556 22.3367 21.2415 22.8114 21.5256 23.1128C21.8097 23.4143 22.2844 23.4283 22.5858 23.1442L21.557 22.0526ZM22.5858 3.85576C22.2844 3.57167 21.8097 3.58574 21.5256 3.88718C21.2415 4.18862 21.2556 4.66329 21.557 4.94738L22.5858 3.85576ZM20.9213 24.4781C21.2643 24.2459 21.354 23.7795 21.1218 23.4366C20.8895 23.0936 20.4232 23.0039 20.0802 23.2362L20.9213 24.4781ZM20.0802 3.76384C20.4232 3.99612 20.8895 3.90639 21.1218 3.56343C21.354 3.22047 21.2643 2.75415 20.9213 2.52187L20.0802 3.76384ZM7.06061 9.11575V8.36575C6.64639 8.36575 6.31061 8.70153 6.31061 9.11575H7.06061ZM10.1232 9.11575V9.86575C10.2756 9.86575 10.4243 9.81934 10.5497 9.7327L10.1232 9.11575ZM10.1232 17.6492L10.5044 17.0033C10.3889 16.9352 10.2573 16.8992 10.1232 16.8992V17.6492ZM7.06061 17.6492H6.31061C6.31061 18.0635 6.64639 18.3992 7.06061 18.3992V17.6492ZM15.2884 5.54545L16.0356 5.61014C16.0607 5.32069 15.9163 5.04281 15.6651 4.8969C15.4139 4.75099 15.101 4.7633 14.862 4.9285L15.2884 5.54545ZM15.2884 20.697L14.9073 21.3429C15.1516 21.4871 15.4563 21.481 15.6947 21.3274C15.9332 21.1737 16.0645 20.8986 16.0341 20.6166L15.2884 20.697ZM18.188 18.7495C17.9149 19.0609 17.9458 19.5347 18.2572 19.8079C18.5686 20.0811 19.0424 20.0501 19.3156 19.7388L18.188 18.7495ZM19.1163 7.02833C18.8442 6.71595 18.3705 6.68322 18.0581 6.95523C17.7457 7.22724 17.713 7.70098 17.985 8.01337L19.1163 7.02833ZM13.5 25.25C7.01065 25.25 1.75 19.9893 1.75 13.5H0.25C0.25 20.8178 6.18223 26.75 13.5 26.75V25.25ZM1.75 13.5C1.75 7.01065 7.01065 1.75 13.5 1.75V0.25C6.18223 0.25 0.25 6.18223 0.25 13.5H1.75ZM25.25 13.5C25.25 16.8707 23.8316 19.909 21.557 22.0526L22.5858 23.1442C25.1486 20.729 26.75 17.3009 26.75 13.5H25.25ZM21.557 4.94738C23.8316 7.09101 25.25 10.1293 25.25 13.5H26.75C26.75 9.69908 25.1486 6.27099 22.5858 3.85576L21.557 4.94738ZM20.0802 23.2362C18.2031 24.5075 15.9394 25.25 13.5 25.25V26.75C16.2486 26.75 18.8038 25.9123 20.9213 24.4781L20.0802 23.2362ZM13.5 1.75C15.9394 1.75 18.2031 2.49254 20.0802 3.76384L20.9213 2.52187C18.8038 1.08773 16.2486 0.25 13.5 0.25V1.75ZM7.06061 9.86575H10.1232V8.36575H7.06061V9.86575ZM10.1232 16.8992H7.06061V18.3992H10.1232V16.8992ZM7.81061 17.6492V9.11575H6.31061V17.6492H7.81061ZM10.5497 9.7327L15.7149 6.16241L14.862 4.9285L9.69678 8.49879L10.5497 9.7327ZM9.7421 18.2952L14.9073 21.3429L15.6696 20.051L10.5044 17.0033L9.7421 18.2952ZM20.1587 13.7733C20.1587 15.4622 19.476 17.2815 18.188 18.7495L19.3156 19.7388C20.8261 18.017 21.6587 15.8519 21.6587 13.7733H20.1587ZM17.985 8.01337C19.2587 9.47608 20.1587 11.7948 20.1587 13.7733H21.6587C21.6587 11.4213 20.6201 8.75541 19.1163 7.02833L17.985 8.01337ZM16.0341 20.6166C15.5492 16.117 15.3733 14.5124 15.4009 12.9643C15.4289 11.3892 15.6628 9.91629 16.0356 5.61014L14.5412 5.48077C14.1786 9.66929 13.9303 11.2977 13.9011 12.9376C13.8715 14.6043 14.0633 16.3281 14.5427 20.7773L16.0341 20.6166Z" fill="#191414"/>
<path d="M21.557 22.0526C21.2556 22.3367 21.2415 22.8114 21.5256 23.1128C21.8097 23.4143 22.2844 23.4283 22.5858 23.1442L21.557 22.0526ZM22.5858 3.85576C22.2844 3.57167 21.8097 3.58574 21.5256 3.88718C21.2415 4.18862 21.2556 4.66329 21.557 4.94738L22.5858 3.85576ZM20.9213 24.4781C21.2643 24.2459 21.354 23.7795 21.1218 23.4366C20.8895 23.0936 20.4232 23.0039 20.0802 23.2362L20.9213 24.4781ZM20.0802 3.76384C20.4232 3.99612 20.8895 3.90639 21.1218 3.56343C21.354 3.22047 21.2643 2.75415 20.9213 2.52187L20.0802 3.76384ZM7.06061 9.11575V8.36575C6.64639 8.36575 6.31061 8.70153 6.31061 9.11575H7.06061ZM10.1232 9.11575V9.86575C10.2756 9.86575 10.4243 9.81934 10.5497 9.7327L10.1232 9.11575ZM10.1232 17.6492L10.5044 17.0033C10.3889 16.9352 10.2573 16.8992 10.1232 16.8992V17.6492ZM7.06061 17.6492H6.31061C6.31061 18.0635 6.64639 18.3992 7.06061 18.3992V17.6492ZM15.2884 5.54545L16.0356 5.61014C16.0607 5.32069 15.9163 5.04281 15.6651 4.8969C15.4139 4.75099 15.101 4.7633 14.862 4.9285L15.2884 5.54545ZM15.2884 20.697L14.9073 21.3429C15.1516 21.4871 15.4563 21.481 15.6947 21.3274C15.9332 21.1737 16.0645 20.8986 16.0341 20.6166L15.2884 20.697ZM18.188 18.7495C17.9149 19.0609 17.9458 19.5347 18.2572 19.8079C18.5686 20.0811 19.0424 20.0501 19.3156 19.7388L18.188 18.7495ZM19.1163 7.02833C18.8442 6.71595 18.3705 6.68322 18.0581 6.95523C17.7457 7.22724 17.713 7.70098 17.985 8.01337L19.1163 7.02833ZM13.5 25.25C7.01065 25.25 1.75 19.9893 1.75 13.5H0.25C0.25 20.8178 6.18223 26.75 13.5 26.75V25.25ZM1.75 13.5C1.75 7.01065 7.01065 1.75 13.5 1.75V0.25C6.18223 0.25 0.25 6.18223 0.25 13.5H1.75ZM25.25 13.5C25.25 16.8707 23.8316 19.909 21.557 22.0526L22.5858 23.1442C25.1486 20.729 26.75 17.3009 26.75 13.5H25.25ZM21.557 4.94738C23.8316 7.09101 25.25 10.1293 25.25 13.5H26.75C26.75 9.69908 25.1486 6.27099 22.5858 3.85576L21.557 4.94738ZM20.0802 23.2362C18.2031 24.5075 15.9394 25.25 13.5 25.25V26.75C16.2486 26.75 18.8038 25.9123 20.9213 24.4781L20.0802 23.2362ZM13.5 1.75C15.9394 1.75 18.2031 2.49254 20.0802 3.76384L20.9213 2.52187C18.8038 1.08773 16.2486 0.25 13.5 0.25V1.75ZM7.06061 9.86575H10.1232V8.36575H7.06061V9.86575ZM10.1232 16.8992H7.06061V18.3992H10.1232V16.8992ZM7.81061 17.6492V9.11575H6.31061V17.6492H7.81061ZM10.5497 9.7327L15.7149 6.16241L14.862 4.9285L9.69678 8.49879L10.5497 9.7327ZM9.7421 18.2952L14.9073 21.3429L15.6696 20.051L10.5044 17.0033L9.7421 18.2952ZM20.1587 13.7733C20.1587 15.4622 19.476 17.2815 18.188 18.7495L19.3156 19.7388C20.8261 18.017 21.6587 15.8519 21.6587 13.7733H20.1587ZM17.985 8.01337C19.2587 9.47608 20.1587 11.7948 20.1587 13.7733H21.6587C21.6587 11.4213 20.6201 8.75541 19.1163 7.02833L17.985 8.01337ZM16.0341 20.6166C15.5492 16.117 15.3733 14.5124 15.4009 12.9643C15.4289 11.3892 15.6628 9.91629 16.0356 5.61014L14.5412 5.48077C14.1786 9.66929 13.9303 11.2977 13.9011 12.9376C13.8715 14.6043 14.0633 16.3281 14.5427 20.7773L16.0341 20.6166Z" fill="#F1F1F1"/>
</svg>
